Coordinates
version=1
nRows=5
nColumns=63
inDegrees=yes

Units are S.I. units (second, meters, Newtons, ...)
If the header above contains a line with 'inDegrees', this indicates whether rotational values are in degrees (yes) or radians (no).

endheader
time	pelvis_tilt	pelvis_list	pelvis_rotation	pelvis_tx	pelvis_ty	pelvis_tz	hip_flexion_r	hip_adduction_r	hip_rotation_r	knee_angle_r	knee_angle_r_beta	ankle_angle_r	subtalar_angle_r	mtp_angle_r	hip_flexion_l	hip_adduction_l	hip_rotation_l	knee_angle_l	knee_angle_l_beta	ankle_angle_l	subtalar_angle_l	mtp_angle_l	L5_S1_Flex_Ext	L5_S1_Lat_Bending	L5_S1_axial_rotation	L4_L5_Flex_Ext	L4_L5_Lat_Bending	L4_L5_axial_rotation	L3_L4_Flex_Ext	L3_L4_Lat_Bending	L3_L4_axial_rotation	L2_L3_Flex_Ext	L2_L3_Lat_Bending	L2_L3_axial_rotation	L1_L2_Flex_Ext	L1_L2_Lat_Bending	L1_L2_axial_rotation	L1_T12_Flex_Ext	L1_T12_Lat_Bending	L1_T12_axial_rotation	Abs_r3	Abs_r2	Abs_r1	Abs_t1	Abs_t2	neck_flexion	neck_bending	neck_rotation	arm_flex_r	arm_add_r	arm_rot_r	elbow_flex_r	pro_sup_r	wrist_flex_r	wrist_dev_r	arm_flex_l	arm_add_l	arm_rot_l	elbow_flex_l	pro_sup_l	wrist_flex_l	wrist_dev_l
      1.06666667	     -1.17518729	     -5.61232639	     82.05978015	      0.15066826	      0.95545607	      0.59460388	      6.60103465	     -1.40345770	    -11.93809921	     16.19368116	      0.28263305	     32.16585508	     14.56729431	      0.00000000	      5.15178933	     -1.37045293	      4.96977037	     13.69299480	      0.23898784	     35.49353310	      2.89504512	      0.00000000	     -0.01139271	      0.08782520	      0.14087693	     -0.02115741	      0.11680751	      0.14968173	     -0.01871709	      0.21353819	      0.14968173	     -0.01302073	      0.21353819	      0.12326731	     -0.01057927	      0.17909314	      0.11446250	     -0.00650980	      0.13604123	      0.10565769	     -0.08137702	      0.99349621	      0.78351520	      0.00000000	      0.00000000	     21.76020354	      2.88470277	      9.75630905	     -5.55844403	    -14.37820915	      5.57172049	     34.76617138	     83.29532865	     -0.17926757	      7.83782794	     -6.64399282	    -16.18170023	      8.51784761	     32.96944701	     86.30067864	    -10.34862170	     -6.37166689
      1.08333333	     -1.34203885	     -5.45820078	     82.17617617	      0.15068755	      0.95557502	      0.59457632	      6.35351417	     -1.56785354	    -12.00205278	     16.01484640	      0.27951180	     32.20588457	     14.59948442	      0.00000000	      5.14409540	     -1.15249268	      4.89378979	     13.87900208	      0.24223428	     35.41143618	      2.91448633	      0.00000000	     -0.02263288	      0.06491376	      0.05561776	     -0.04203152	      0.08633530	      0.05909387	     -0.03718356	      0.15783131	      0.05909387	     -0.02586712	      0.15783131	      0.04866554	     -0.02101689	      0.13237213	      0.04518943	     -0.01293243	      0.10055141	      0.04171332	     -0.16166440	      0.73431739	      0.30932929	      0.00000000	      0.00000000	     21.22559719	      2.85552115	     10.02313170	     -5.48367166	    -14.36599977	      5.69826943	     33.87570376	     83.07039428	      0.07429469	      8.19614589	     -7.11652648	    -16.17609005	      7.43108520	     32.77870632	     86.37942963	    -10.11333179	     -6.76368143
      1.10000000	     -1.47633262	     -5.30898826	     82.32593265	      0.15066523	      0.95563491	      0.59445813	      6.15784303	     -1.71513227	    -12.13321271	     15.93765897	      0.27816462	     32.25070168	     14.63183025	      0.00000000	      5.11051761	     -0.97688227	      4.96778088	     14.01815955	      0.24466304	     35.33267666	      2.93691497	      0.00000000	     -0.03524776	      0.04517206	     -0.04123531	     -0.06545862	      0.06007884	     -0.04381251	     -0.05790855	      0.10983134	     -0.04381251	     -0.04028467	      0.10983134	     -0.03608089	     -0.03273107	      0.09211486	     -0.03350369	     -0.02014057	      0.06997152	     -0.03092648	     -0.25177125	      0.51099536	     -0.22933841	      0.00000000	      0.00000000	     20.58375795	      2.88694513	     10.34270997	     -5.37087247	    -14.35338113	      5.85176129	     33.06926404	     82.77561941	      0.55492256	      8.46189638	     -7.55154223	    -16.12501838	      6.55805954	     32.45862921	     86.49624339	    -10.12906432	     -7.06314218
      1.11666667	     -1.52389416	     -5.25562731	     82.71238237	      0.15035726	      0.95553846	      0.59424214	      5.98282344	     -1.78624880	    -12.62192551	     15.77877402	      0.27539156	     32.41265075	     14.85313603	      0.00000000	      5.12853045	     -0.88614718	      5.31581141	     14.01672049	      0.24463792	     35.33401270	      2.96868790	      0.00000000	     -0.04300184	      0.03265360	     -0.19942165	     -0.07985872	      0.04342929	     -0.21188550	     -0.07064772	      0.07939396	     -0.21188550	     -0.04914680	      0.07939396	     -0.17449394	     -0.03993151	      0.06658722	     -0.16203009	     -0.02457125	      0.05058043	     -0.14956624	     -0.30715784	      0.36938406	     -1.10912339	      0.00000000	      0.00000000	     20.16868376	      3.38194585	     10.94195682	     -5.08469089	    -14.38046179	      6.14337966	     32.16382109	     82.01961149	      1.76735352	      8.49144983	     -8.09011173	    -15.97193451	      5.46755343	     32.23007272	     87.01393029	    -10.44415518	     -7.35397855
      1.13333333	     -1.54700424	     -5.23523294	     82.72291364	      0.15051890	      0.95535016	      0.59407801	      5.96005265	     -1.78720211	    -12.62678414	     15.73607578	      0.27464633	     32.67124989	     14.88079418	      0.00000000	      5.14161854	     -0.84924267	      5.30631926	     14.01475968	      0.24460370	     35.53611555	      2.93043561	      0.00000000	     -0.05196518	      0.02387760	     -0.20998462	     -0.09650454	      0.03175721	     -0.22310866	     -0.08537360	      0.05805599	     -0.22310866	     -0.05939101	      0.05805599	     -0.18373654	     -0.04825487	      0.04869120	     -0.17061250	     -0.02969291	      0.03698640	     -0.15748846	     -0.37118211	      0.27010818	     -1.16787145	      0.00000000	      0.00000000	     20.02676723	      3.38423128	     10.94770415	     -5.24491233	    -14.43302906	      6.10996642	     31.99268812	     81.95719516	      1.78435343	      8.50657309	     -8.21116278	    -15.97026297	      5.45928813	     31.96664853	     87.07095772	    -10.51383662	     -7.22595709
